<svg xmlns="http://www.w3.org/2000/svg" xmlns:xlink="http://www.w3.org/1999/xlink" width="378" zoomAndPan="magnify" viewBox="0 0 283.5 283.500005" height="378" preserveAspectRatio="xMidYMid meet" version="1.0"><defs><g/><clipPath id="e9169b2e9c"><path d="M 39.609375 149.519531 L 144.4375 149.519531 L 144.4375 171.980469 L 39.609375 171.980469 Z M 39.609375 149.519531 " clip-rule="nonzero"/></clipPath><clipPath id="e7a350d26d"><path d="M 74 147.121094 L 174.917969 147.121094 L 174.917969 195 L 74 195 Z M 74 147.121094 " clip-rule="nonzero"/></clipPath><clipPath id="26e5d8ed6e"><path d="M 82.75 101 L 125 101 L 125 148 L 82.75 148 Z M 82.75 101 " clip-rule="nonzero"/></clipPath><clipPath id="2f2352f5d0"><path d="M 82.75 88 L 137 88 L 137 148 L 82.75 148 Z M 82.75 88 " clip-rule="nonzero"/></clipPath><clipPath id="5298dd6590"><path d="M 128 59.621094 L 212.285156 59.621094 L 212.285156 160.703125 L 128 160.703125 Z M 128 59.621094 " clip-rule="nonzero"/></clipPath></defs><g clip-path="url(#e9169b2e9c)"><path fill="#a90809" d="M 53.171875 169.550781 C 50.222656 169.550781 48.726562 168.285156 48.726562 165.75 C 48.726562 164.324219 49.441406 161.953125 50.890625 158.660156 C 52.320312 155.367188 53.054688 153.203125 53.054688 152.191406 C 53.054688 151.429688 52.550781 151.039062 51.535156 151.039062 C 50.617188 151.039062 49.28125 151.339844 47.554688 151.9375 C 45.828125 152.535156 44.328125 153.15625 43.0625 153.847656 L 41.152344 154.746094 C 40.808594 154.90625 40.507812 155 40.253906 155 C 39.839844 155 39.609375 154.746094 39.609375 154.238281 C 39.609375 153.824219 39.910156 153.480469 40.507812 153.226562 C 45.410156 150.785156 49.625 149.542969 53.171875 149.542969 C 56.210938 149.542969 57.730469 150.441406 57.730469 152.214844 C 57.730469 152.304688 57.382812 153.203125 56.714844 154.929688 C 56.050781 156.65625 55.335938 158.566406 54.621094 160.640625 C 53.90625 162.710938 53.539062 164.210938 53.539062 165.128906 C 53.539062 165.980469 53.839844 166.394531 54.4375 166.394531 C 54.691406 166.394531 55.957031 165.246094 58.234375 162.917969 C 60.515625 160.59375 63.460938 158.269531 67.101562 155.945312 C 70.738281 153.617188 74.285156 152.46875 77.738281 152.46875 C 79.671875 152.46875 81.144531 153.410156 82.113281 155.320312 C 83.078125 157.234375 83.699219 159.328125 83.953125 161.652344 C 84.207031 163.980469 85.058594 166.097656 86.484375 167.984375 C 87.914062 169.894531 90.078125 170.839844 92.957031 170.839844 C 96.664062 170.839844 101.289062 170.011719 106.816406 168.375 C 112.34375 166.71875 117.222656 164.96875 121.4375 163.128906 C 125.648438 161.261719 130.117188 159.214844 134.789062 156.980469 C 139.488281 154.746094 142.15625 153.503906 142.824219 153.25 C 143.332031 152.996094 143.632812 152.859375 143.722656 152.859375 C 144.136719 152.859375 144.367188 153.15625 144.367188 153.757812 C 144.367188 154.171875 144.070312 154.515625 143.46875 154.769531 C 120.675781 166.167969 104.078125 171.875 93.691406 171.875 C 90.5625 171.875 87.9375 171.484375 85.773438 170.679688 C 83.609375 169.871094 82.066406 168.859375 81.074219 167.640625 C 80.109375 166.417969 79.304688 165.105469 78.65625 163.703125 C 78.011719 162.296875 77.597656 161.007812 77.390625 159.765625 C 77.183594 158.546875 76.792969 157.53125 76.242188 156.726562 C 75.6875 155.921875 74.996094 155.527344 74.144531 155.527344 C 72.027344 155.527344 69.703125 156.265625 67.125 157.738281 C 64.542969 159.214844 62.355469 160.824219 60.539062 162.550781 C 58.71875 164.277344 57.109375 165.890625 55.65625 167.363281 C 54.253906 168.8125 53.425781 169.550781 53.171875 169.550781 Z M 53.171875 169.550781 " fill-opacity="1" fill-rule="nonzero"/></g><g clip-path="url(#e7a350d26d)"><path fill="#a90809" d="M 174.523438 172.917969 C 174.546875 173.160156 174.472656 173.402344 174.316406 173.589844 C 172.972656 175.210938 168.40625 178.71875 162.875 181.105469 C 159.855469 182.410156 155.996094 183.605469 152.015625 183.605469 C 149.339844 183.636719 146.695312 183.019531 144.3125 181.800781 C 143.152344 185.507812 142.101562 189.15625 141.21875 192.632812 C 140.550781 195.253906 138.347656 194.714844 138.585938 192.757812 C 139.269531 187.101562 141.808594 178.265625 144.871094 169.1875 C 135.691406 171.277344 105.003906 182.976562 87.40625 182.976562 C 77.183594 182.976562 70.863281 177.121094 76.695312 171.285156 C 77.144531 170.839844 77.871094 170.839844 78.316406 171.289062 C 78.765625 171.738281 78.765625 172.464844 78.320312 172.914062 C 73.605469 177.628906 80.855469 180.675781 87.40625 180.675781 C 105.53125 180.675781 138.386719 167.765625 145.726562 166.683594 C 150.53125 152.800781 156.28125 138.980469 158.253906 135.65625 C 159.378906 133.761719 162.320312 134.691406 161.15625 137.390625 C 158.316406 143.960938 152.773438 157.183594 147.875 171.105469 C 149.34375 168.808594 151.128906 166.730469 153.179688 164.933594 C 157.117188 161.578125 162.929688 159.410156 162.929688 164.539062 C 162.929688 168.542969 156.34375 176.582031 147.503906 179.367188 C 156.925781 183.457031 167.972656 176.304688 172.574219 172.777344 C 172.703125 172.644531 172.816406 172.523438 172.902344 172.421875 C 173.058594 172.230469 173.28125 172.113281 173.523438 172.09375 C 173.765625 172.070312 174.007812 172.144531 174.195312 172.300781 C 174.386719 172.457031 174.503906 172.679688 174.523438 172.921875 Z M 146.746094 176.902344 C 156.941406 171.785156 160.972656 164.105469 159.566406 164.105469 C 158.550781 164.105469 151.90625 166.472656 146.746094 176.902344 Z M 146.746094 176.902344 " fill-opacity="1" fill-rule="nonzero"/></g><g clip-path="url(#26e5d8ed6e)"><path fill="#a90809" d="M 87.847656 143.503906 C 87.847656 143.503906 89.167969 115.1875 82.816406 101.957031 C 82.816406 101.957031 99.488281 140.0625 124.894531 147.472656 C 124.894531 147.472656 97.0625 141.414062 90.492188 122.863281 C 90.492188 122.863281 89.832031 139.929688 87.847656 143.503906 Z M 87.847656 143.503906 " fill-opacity="1" fill-rule="nonzero"/></g><g clip-path="url(#2f2352f5d0)"><path fill="#a90809" d="M 82.816406 88.199219 C 82.816406 88.199219 91.550781 122.777344 112.898438 122.246094 C 112.898438 122.246094 119.777344 139.886719 136.359375 147.472656 C 136.359375 147.472656 94.902344 142.003906 82.816406 88.199219 Z M 82.816406 88.199219 " fill-opacity="1" fill-rule="nonzero"/></g><path fill="#a90809" d="M 115.71875 121.714844 C 115.71875 121.714844 155.589844 120.21875 164.320312 64.910156 L 169.613281 98.253906 L 164.054688 77.878906 C 164.054688 77.878906 157.617188 126.039062 136.359375 144.5625 C 136.359375 144.5625 124.011719 138.300781 115.71875 121.714844 Z M 115.71875 121.714844 " fill-opacity="1" fill-rule="nonzero"/><path fill="#a90809" d="M 158.5 113.074219 C 158.5 113.074219 177.023438 104.867188 184.167969 63.058594 L 188.402344 96.667969 L 183.902344 76.289062 C 183.902344 76.289062 186.902344 112.542969 142.667969 145.621094 C 142.667969 145.621094 154.265625 125.246094 158.5 113.074219 Z M 158.5 113.074219 " fill-opacity="1" fill-rule="nonzero"/><path fill="#a90809" d="M 176.230469 111.75 C 176.230469 111.75 195.8125 97.722656 205.867188 76.820312 C 205.867188 76.820312 198.988281 111.21875 146.855469 145.621094 C 146.855469 145.621094 173.054688 123.6875 176.230469 111.75 Z M 176.230469 111.75 " fill-opacity="1" fill-rule="nonzero"/><g clip-path="url(#5298dd6590)"><path fill="#a90809" d="M 128.863281 160.703125 C 128.863281 160.703125 205.070312 119.6875 212.480469 59.621094 C 212.480469 59.621094 211.160156 105.132812 186.285156 158.851562 L 198.191406 108.308594 C 198.191406 108.308594 164.851562 151.972656 128.863281 160.703125 Z M 128.863281 160.703125 " fill-opacity="1" fill-rule="nonzero"/></g><g fill="#a90809" fill-opacity="1"><g transform="translate(90.725677, 164.127021)"><g><path d="M 8 -8.375 C 7.925781 -8.238281 7.796875 -7.941406 7.609375 -7.484375 C 7.421875 -7.035156 7.207031 -6.492188 6.96875 -5.859375 C 6.726562 -5.234375 6.484375 -4.578125 6.234375 -3.890625 C 5.984375 -3.210938 5.765625 -2.554688 5.578125 -1.921875 C 5.398438 -1.285156 5.269531 -0.738281 5.1875 -0.28125 C 5.113281 0.175781 5.128906 0.476562 5.234375 0.625 C 5.453125 0.851562 5.753906 0.882812 6.140625 0.71875 C 6.535156 0.550781 6.984375 0.253906 7.484375 -0.171875 C 7.992188 -0.609375 8.519531 -1.117188 9.0625 -1.703125 C 9.613281 -2.296875 10.164062 -2.914062 10.71875 -3.5625 C 11.269531 -4.207031 11.78125 -4.832031 12.25 -5.4375 C 12.71875 -6.039062 13.125 -6.554688 13.46875 -6.984375 C 13.820312 -7.421875 14.070312 -7.722656 14.21875 -7.890625 C 14.28125 -7.941406 14.359375 -7.976562 14.453125 -8 C 14.554688 -8.019531 14.597656 -7.992188 14.578125 -7.921875 C 14.378906 -7.722656 14.09375 -7.390625 13.71875 -6.921875 C 13.34375 -6.453125 12.90625 -5.898438 12.40625 -5.265625 C 11.90625 -4.640625 11.367188 -3.984375 10.796875 -3.296875 C 10.234375 -2.617188 9.660156 -1.972656 9.078125 -1.359375 C 8.492188 -0.753906 7.929688 -0.238281 7.390625 0.1875 C 6.847656 0.625 6.351562 0.910156 5.90625 1.046875 C 5.457031 1.179688 5.082031 1.109375 4.78125 0.828125 C 4.5625 0.617188 4.445312 0.226562 4.4375 -0.34375 C 4.425781 -0.914062 4.515625 -1.628906 4.703125 -2.484375 C 4.890625 -3.335938 5.1875 -4.28125 5.59375 -5.3125 C 5.257812 -4.695312 4.890625 -4.003906 4.484375 -3.234375 C 4.085938 -2.472656 3.675781 -1.742188 3.25 -1.046875 C 2.832031 -0.347656 2.425781 0.238281 2.03125 0.71875 C 1.644531 1.207031 1.285156 1.488281 0.953125 1.5625 C 0.453125 1.675781 0.101562 1.59375 -0.09375 1.3125 C -0.300781 1.03125 -0.398438 0.613281 -0.390625 0.0625 C -0.390625 -0.476562 -0.3125 -1.085938 -0.15625 -1.765625 C 0 -2.453125 0.191406 -3.132812 0.421875 -3.8125 C 0.660156 -4.488281 0.894531 -5.101562 1.125 -5.65625 C 1.351562 -6.21875 1.546875 -6.640625 1.703125 -6.921875 C 1.898438 -7.335938 2.117188 -7.601562 2.359375 -7.71875 C 2.609375 -7.832031 2.800781 -7.84375 2.9375 -7.75 C 3.082031 -7.664062 3.097656 -7.503906 2.984375 -7.265625 C 2.816406 -6.847656 2.617188 -6.34375 2.390625 -5.75 C 2.171875 -5.164062 1.953125 -4.546875 1.734375 -3.890625 C 1.523438 -3.234375 1.328125 -2.59375 1.140625 -1.96875 C 0.960938 -1.351562 0.828125 -0.796875 0.734375 -0.296875 C 0.640625 0.203125 0.609375 0.59375 0.640625 0.875 C 0.679688 1.164062 0.8125 1.296875 1.03125 1.265625 C 1.269531 1.210938 1.582031 0.925781 1.96875 0.40625 C 2.351562 -0.101562 2.785156 -0.789062 3.265625 -1.65625 C 3.742188 -2.53125 4.257812 -3.488281 4.8125 -4.53125 C 5.363281 -5.582031 5.910156 -6.664062 6.453125 -7.78125 C 6.679688 -8.238281 6.9375 -8.546875 7.21875 -8.703125 C 7.5 -8.859375 7.722656 -8.90625 7.890625 -8.84375 C 8.054688 -8.78125 8.09375 -8.625 8 -8.375 Z M 8 -8.375 "/></g></g></g><g fill="#a90809" fill-opacity="1"><g transform="translate(103.703046, 161.640262)"><g><path d="M 0.5625 5.421875 C -0.0390625 5.660156 -0.519531 5.6875 -0.875 5.5 C -1.238281 5.3125 -1.457031 4.984375 -1.53125 4.515625 C -1.601562 4.046875 -1.507812 3.492188 -1.25 2.859375 C -0.988281 2.234375 -0.550781 1.597656 0.0625 0.953125 C 0.6875 0.316406 1.503906 -0.265625 2.515625 -0.796875 C 2.421875 -1.078125 2.296875 -1.425781 2.140625 -1.84375 C 1.984375 -2.269531 1.828125 -2.726562 1.671875 -3.21875 C 1.523438 -3.707031 1.390625 -4.171875 1.265625 -4.609375 C 1.035156 -5.460938 1.054688 -6.265625 1.328125 -7.015625 C 1.609375 -7.765625 2.035156 -8.410156 2.609375 -8.953125 C 3.191406 -9.503906 3.851562 -9.890625 4.59375 -10.109375 C 5.15625 -10.296875 5.585938 -10.257812 5.890625 -10 C 6.191406 -9.738281 6.316406 -9.34375 6.265625 -8.8125 C 6.222656 -8.28125 5.957031 -7.691406 5.46875 -7.046875 L 5.078125 -6.96875 C 5.597656 -7.582031 5.878906 -8.140625 5.921875 -8.640625 C 5.972656 -9.140625 5.863281 -9.503906 5.59375 -9.734375 C 5.320312 -9.960938 4.96875 -9.976562 4.53125 -9.78125 C 4.050781 -9.5625 3.613281 -9.242188 3.21875 -8.828125 C 2.820312 -8.421875 2.535156 -7.953125 2.359375 -7.421875 C 2.179688 -6.890625 2.191406 -6.320312 2.390625 -5.71875 C 2.515625 -5.269531 2.648438 -4.84375 2.796875 -4.4375 C 2.953125 -4.039062 3.109375 -3.617188 3.265625 -3.171875 C 3.421875 -2.734375 3.566406 -2.222656 3.703125 -1.640625 C 4.367188 -2.015625 5.078125 -2.460938 5.828125 -2.984375 C 6.585938 -3.515625 7.34375 -4.125 8.09375 -4.8125 C 8.84375 -5.5 9.523438 -6.253906 10.140625 -7.078125 C 10.304688 -7.222656 10.429688 -7.289062 10.515625 -7.28125 C 10.609375 -7.28125 10.617188 -7.234375 10.546875 -7.140625 C 9.753906 -6.109375 8.941406 -5.222656 8.109375 -4.484375 C 7.285156 -3.742188 6.5 -3.125 5.75 -2.625 C 5 -2.125 4.335938 -1.707031 3.765625 -1.375 C 3.878906 -0.769531 3.914062 -0.140625 3.875 0.515625 C 3.832031 1.179688 3.6875 1.832031 3.4375 2.46875 C 3.1875 3.113281 2.820312 3.6875 2.34375 4.1875 C 1.863281 4.695312 1.269531 5.109375 0.5625 5.421875 Z M 0.78125 5.015625 C 1.0625 4.867188 1.332031 4.601562 1.59375 4.21875 C 1.851562 3.84375 2.070312 3.398438 2.25 2.890625 C 2.4375 2.378906 2.5625 1.820312 2.625 1.21875 C 2.695312 0.625 2.675781 0.0351562 2.5625 -0.546875 C 1.59375 -0.0234375 0.816406 0.546875 0.234375 1.171875 C -0.335938 1.796875 -0.734375 2.394531 -0.953125 2.96875 C -1.179688 3.550781 -1.257812 4.046875 -1.1875 4.453125 C -1.113281 4.859375 -0.90625 5.125 -0.5625 5.25 C -0.226562 5.382812 0.21875 5.304688 0.78125 5.015625 Z M 0.78125 5.015625 "/></g></g></g><g fill="#a90809" fill-opacity="1"><g transform="translate(112.692244, 159.917728)"><g><path d="M 5.421875 0.296875 C 5.828125 -0.046875 6.285156 -0.484375 6.796875 -1.015625 C 7.316406 -1.546875 7.835938 -2.125 8.359375 -2.75 C 8.890625 -3.375 9.398438 -3.992188 9.890625 -4.609375 C 10.378906 -5.222656 10.816406 -5.785156 11.203125 -6.296875 C 11.585938 -6.816406 11.90625 -7.21875 12.15625 -7.5 C 12.21875 -7.550781 12.296875 -7.585938 12.390625 -7.609375 C 12.484375 -7.628906 12.519531 -7.601562 12.5 -7.53125 C 12.125 -7.070312 11.664062 -6.492188 11.125 -5.796875 C 10.59375 -5.109375 10.015625 -4.382812 9.390625 -3.625 C 8.773438 -2.863281 8.15625 -2.132812 7.53125 -1.4375 C 6.90625 -0.738281 6.316406 -0.15625 5.765625 0.3125 C 5.109375 0.863281 4.59375 1.160156 4.21875 1.203125 C 3.851562 1.242188 3.597656 1.09375 3.453125 0.75 C 3.304688 0.414062 3.253906 -0.046875 3.296875 -0.640625 C 3.347656 -1.234375 3.46875 -1.90625 3.65625 -2.65625 C 3.851562 -3.414062 4.109375 -4.191406 4.421875 -4.984375 C 4.734375 -5.773438 5.078125 -6.523438 5.453125 -7.234375 C 4.421875 -5.597656 3.628906 -4.382812 3.078125 -3.59375 C 2.535156 -2.800781 2.109375 -2.335938 1.796875 -2.203125 C 1.421875 -2.054688 1.128906 -2.097656 0.921875 -2.328125 C 0.710938 -2.554688 0.617188 -2.9375 0.640625 -3.46875 C 0.671875 -4.007812 0.847656 -4.671875 1.171875 -5.453125 C 1.515625 -6.273438 1.925781 -6.953125 2.40625 -7.484375 C 2.894531 -8.023438 3.398438 -8.445312 3.921875 -8.75 C 4.453125 -9.050781 4.941406 -9.25 5.390625 -9.34375 C 5.835938 -9.4375 6.191406 -9.4375 6.453125 -9.34375 L 6.703125 -9.796875 C 6.941406 -10.160156 7.195312 -10.40625 7.46875 -10.53125 C 7.738281 -10.65625 7.960938 -10.6875 8.140625 -10.625 C 8.316406 -10.5625 8.359375 -10.4375 8.265625 -10.25 C 8.003906 -9.851562 7.695312 -9.320312 7.34375 -8.65625 C 6.988281 -8 6.625 -7.269531 6.25 -6.46875 C 5.882812 -5.664062 5.546875 -4.859375 5.234375 -4.046875 C 4.921875 -3.242188 4.660156 -2.5 4.453125 -1.8125 C 4.253906 -1.125 4.140625 -0.550781 4.109375 -0.09375 C 4.078125 0.363281 4.160156 0.640625 4.359375 0.734375 C 4.554688 0.828125 4.910156 0.679688 5.421875 0.296875 Z M 6.265625 -9 C 5.859375 -9.125 5.457031 -9.070312 5.0625 -8.84375 C 4.664062 -8.613281 4.289062 -8.289062 3.9375 -7.875 C 3.582031 -7.457031 3.265625 -6.984375 2.984375 -6.453125 C 2.710938 -5.929688 2.484375 -5.410156 2.296875 -4.890625 C 2.109375 -4.378906 1.988281 -3.925781 1.9375 -3.53125 C 1.894531 -3.132812 1.929688 -2.847656 2.046875 -2.671875 C 2.179688 -2.796875 2.398438 -3.082031 2.703125 -3.53125 C 3.015625 -3.976562 3.375 -4.515625 3.78125 -5.140625 C 4.1875 -5.773438 4.601562 -6.429688 5.03125 -7.109375 C 5.46875 -7.796875 5.878906 -8.425781 6.265625 -9 Z M 6.265625 -9 "/></g></g></g><g fill="#a90809" fill-opacity="1"><g transform="translate(175.645689, 182.294218)"><g><path d="M 2.0625 0.671875 C 2.414062 0.335938 2.800781 -0.078125 3.21875 -0.578125 C 3.644531 -1.078125 4.070312 -1.625 4.5 -2.21875 C 4.925781 -2.8125 5.347656 -3.394531 5.765625 -3.96875 C 6.179688 -4.550781 6.546875 -5.078125 6.859375 -5.546875 C 7.171875 -6.023438 7.425781 -6.40625 7.625 -6.6875 C 7.675781 -6.726562 7.742188 -6.757812 7.828125 -6.78125 C 7.921875 -6.800781 7.960938 -6.785156 7.953125 -6.734375 C 7.640625 -6.296875 7.265625 -5.75 6.828125 -5.09375 C 6.390625 -4.4375 5.914062 -3.75 5.40625 -3.03125 C 4.894531 -2.320312 4.378906 -1.640625 3.859375 -0.984375 C 3.335938 -0.335938 2.835938 0.210938 2.359375 0.671875 C 1.703125 1.316406 1.113281 1.628906 0.59375 1.609375 C 0.0820312 1.585938 -0.195312 1.160156 -0.25 0.328125 C -0.28125 0.046875 -0.269531 -0.3125 -0.21875 -0.75 C -0.164062 -1.195312 -0.09375 -1.675781 0 -2.1875 C 0.101562 -2.695312 0.21875 -3.203125 0.34375 -3.703125 C 0.476562 -4.203125 0.597656 -4.660156 0.703125 -5.078125 C 0.816406 -5.492188 0.921875 -5.8125 1.015625 -6.03125 C 1.203125 -6.4375 1.421875 -6.753906 1.671875 -6.984375 C 1.929688 -7.222656 2.148438 -7.335938 2.328125 -7.328125 C 2.503906 -7.328125 2.550781 -7.179688 2.46875 -6.890625 C 2.300781 -6.335938 2.117188 -5.71875 1.921875 -5.03125 C 1.722656 -4.351562 1.535156 -3.664062 1.359375 -2.96875 C 1.179688 -2.269531 1.035156 -1.617188 0.921875 -1.015625 C 0.804688 -0.410156 0.757812 0.0820312 0.78125 0.46875 C 0.800781 0.863281 0.910156 1.09375 1.109375 1.15625 C 1.316406 1.21875 1.632812 1.054688 2.0625 0.671875 Z M 2.40625 -8.625 C 2.238281 -8.582031 2.132812 -8.640625 2.09375 -8.796875 C 2.0625 -8.960938 2.078125 -9.160156 2.140625 -9.390625 C 2.210938 -9.617188 2.316406 -9.832031 2.453125 -10.03125 C 2.585938 -10.238281 2.753906 -10.359375 2.953125 -10.390625 C 3.054688 -10.367188 3.113281 -10.273438 3.125 -10.109375 C 3.132812 -9.953125 3.101562 -9.757812 3.03125 -9.53125 C 2.96875 -9.3125 2.878906 -9.113281 2.765625 -8.9375 C 2.648438 -8.757812 2.53125 -8.65625 2.40625 -8.625 Z M 2.40625 -8.625 "/></g></g></g><g fill="#a90809" fill-opacity="1"><g transform="translate(182.552779, 180.503536)"><g><path d="M 6.59375 -12.09375 C 6.539062 -12.320312 6.253906 -12.382812 5.734375 -12.28125 C 5.210938 -12.175781 4.460938 -11.867188 3.484375 -11.359375 C 3.242188 -10.523438 2.984375 -9.613281 2.703125 -8.625 C 2.429688 -7.632812 2.164062 -6.628906 1.90625 -5.609375 C 1.65625 -4.597656 1.421875 -3.617188 1.203125 -2.671875 C 0.992188 -1.734375 0.820312 -0.890625 0.6875 -0.140625 C 0.5625 0.597656 0.5 1.179688 0.5 1.609375 C 0.5 1.878906 0.539062 2.132812 0.625 2.375 C 0.707031 2.613281 0.84375 2.765625 1.03125 2.828125 C 1.21875 2.890625 1.472656 2.789062 1.796875 2.53125 C 2.117188 2.25 2.472656 1.859375 2.859375 1.359375 C 3.242188 0.867188 3.632812 0.316406 4.03125 -0.296875 C 4.4375 -0.921875 4.832031 -1.5625 5.21875 -2.21875 C 5.613281 -2.882812 5.988281 -3.519531 6.34375 -4.125 C 6.707031 -4.726562 7.023438 -5.257812 7.296875 -5.71875 C 7.566406 -6.175781 7.785156 -6.523438 7.953125 -6.765625 C 8.003906 -6.804688 8.070312 -6.835938 8.15625 -6.859375 C 8.238281 -6.890625 8.273438 -6.875 8.265625 -6.8125 C 8.015625 -6.457031 7.707031 -5.976562 7.34375 -5.375 C 6.988281 -4.769531 6.59375 -4.09375 6.15625 -3.34375 C 5.726562 -2.601562 5.28125 -1.851562 4.8125 -1.09375 C 4.351562 -0.34375 3.882812 0.351562 3.40625 1 C 2.925781 1.65625 2.457031 2.203125 2 2.640625 C 1.632812 2.992188 1.304688 3.171875 1.015625 3.171875 C 0.722656 3.179688 0.472656 3.078125 0.265625 2.859375 C 0.0664062 2.640625 -0.0664062 2.382812 -0.140625 2.09375 C -0.265625 1.570312 -0.296875 0.921875 -0.234375 0.140625 C -0.179688 -0.640625 -0.0703125 -1.503906 0.09375 -2.453125 C 0.257812 -3.398438 0.457031 -4.363281 0.6875 -5.34375 C 0.925781 -6.320312 1.171875 -7.273438 1.421875 -8.203125 C 1.679688 -9.128906 1.921875 -9.960938 2.140625 -10.703125 C 1.679688 -10.398438 1.226562 -10.160156 0.78125 -9.984375 C 0.34375 -9.816406 -0.0195312 -9.78125 -0.3125 -9.875 C -0.4375 -9.90625 -0.476562 -9.976562 -0.4375 -10.09375 C -0.40625 -10.207031 -0.34375 -10.289062 -0.25 -10.34375 C -0.164062 -10.394531 -0.113281 -10.347656 -0.09375 -10.203125 C 0.0390625 -10.054688 0.332031 -10.070312 0.78125 -10.25 C 1.226562 -10.425781 1.710938 -10.675781 2.234375 -11 C 2.347656 -11.40625 2.476562 -11.84375 2.625 -12.3125 C 2.769531 -12.78125 2.90625 -13.21875 3.03125 -13.625 C 3.164062 -14.039062 3.273438 -14.367188 3.359375 -14.609375 C 3.515625 -14.992188 3.703125 -15.253906 3.921875 -15.390625 C 4.148438 -15.535156 4.332031 -15.5625 4.46875 -15.46875 C 4.613281 -15.382812 4.625 -15.175781 4.5 -14.84375 C 4.5 -14.78125 4.445312 -14.582031 4.34375 -14.25 C 4.238281 -13.914062 4.117188 -13.519531 3.984375 -13.0625 C 3.847656 -12.613281 3.710938 -12.15625 3.578125 -11.6875 C 4.003906 -11.90625 4.445312 -12.101562 4.90625 -12.28125 C 5.375 -12.46875 5.785156 -12.582031 6.140625 -12.625 C 6.503906 -12.675781 6.738281 -12.617188 6.84375 -12.453125 C 6.914062 -12.367188 6.929688 -12.285156 6.890625 -12.203125 C 6.847656 -12.117188 6.796875 -12.054688 6.734375 -12.015625 C 6.671875 -11.984375 6.625 -12.007812 6.59375 -12.09375 Z M 6.59375 -12.09375 "/></g></g></g><g fill="#a90809" fill-opacity="1"><g transform="translate(189.701897, 178.650109)"><g><path d="M 4.859375 -0.0625 C 5.203125 -0.382812 5.585938 -0.796875 6.015625 -1.296875 C 6.453125 -1.796875 6.882812 -2.335938 7.3125 -2.921875 C 7.75 -3.515625 8.164062 -4.101562 8.5625 -4.6875 C 8.96875 -5.269531 9.328125 -5.800781 9.640625 -6.28125 C 9.960938 -6.757812 10.222656 -7.132812 10.421875 -7.40625 C 10.472656 -7.445312 10.539062 -7.476562 10.625 -7.5 C 10.71875 -7.53125 10.753906 -7.515625 10.734375 -7.453125 C 10.429688 -7.015625 10.0625 -6.46875 9.625 -5.8125 C 9.1875 -5.164062 8.707031 -4.484375 8.1875 -3.765625 C 7.675781 -3.046875 7.160156 -2.359375 6.640625 -1.703125 C 6.117188 -1.054688 5.625 -0.503906 5.15625 -0.046875 C 4.613281 0.484375 4.175781 0.773438 3.84375 0.828125 C 3.519531 0.890625 3.28125 0.769531 3.125 0.46875 C 2.976562 0.175781 2.90625 -0.234375 2.90625 -0.765625 C 2.914062 -1.296875 2.984375 -1.90625 3.109375 -2.59375 C 3.242188 -3.28125 3.425781 -3.984375 3.65625 -4.703125 C 3.894531 -5.429688 4.164062 -6.125 4.46875 -6.78125 C 3.625 -5.269531 2.976562 -4.140625 2.53125 -3.390625 C 2.09375 -2.640625 1.738281 -2.203125 1.46875 -2.078125 C 1.144531 -1.921875 0.882812 -1.9375 0.6875 -2.125 C 0.488281 -2.320312 0.382812 -2.660156 0.375 -3.140625 C 0.363281 -3.628906 0.476562 -4.226562 0.71875 -4.9375 C 0.976562 -5.695312 1.304688 -6.328125 1.703125 -6.828125 C 2.109375 -7.335938 2.535156 -7.738281 2.984375 -8.03125 C 3.441406 -8.332031 3.867188 -8.535156 4.265625 -8.640625 C 4.671875 -8.753906 4.988281 -8.78125 5.21875 -8.71875 L 5.453125 -9.140625 C 5.617188 -9.472656 5.820312 -9.703125 6.0625 -9.828125 C 6.300781 -9.953125 6.5 -9.992188 6.65625 -9.953125 C 6.820312 -9.910156 6.875 -9.800781 6.8125 -9.625 C 6.582031 -9.25 6.328125 -8.757812 6.046875 -8.15625 C 5.765625 -7.550781 5.484375 -6.878906 5.203125 -6.140625 C 4.929688 -5.398438 4.675781 -4.660156 4.4375 -3.921875 C 4.207031 -3.179688 4.019531 -2.5 3.875 -1.875 C 3.738281 -1.25 3.671875 -0.726562 3.671875 -0.3125 C 3.671875 0.101562 3.757812 0.347656 3.9375 0.421875 C 4.113281 0.492188 4.421875 0.332031 4.859375 -0.0625 Z M 5.078125 -8.40625 C 4.710938 -8.476562 4.359375 -8.40625 4.015625 -8.1875 C 3.671875 -7.96875 3.351562 -7.660156 3.0625 -7.265625 C 2.769531 -6.867188 2.515625 -6.429688 2.296875 -5.953125 C 2.078125 -5.472656 1.898438 -4.992188 1.765625 -4.515625 C 1.628906 -4.046875 1.550781 -3.628906 1.53125 -3.265625 C 1.519531 -2.898438 1.566406 -2.648438 1.671875 -2.515625 C 1.796875 -2.640625 1.976562 -2.90625 2.21875 -3.3125 C 2.46875 -3.726562 2.753906 -4.226562 3.078125 -4.8125 C 3.410156 -5.40625 3.75 -6.015625 4.09375 -6.640625 C 4.4375 -7.265625 4.765625 -7.851562 5.078125 -8.40625 Z M 5.078125 -8.40625 "/></g></g></g></svg>